<svg width="170" height="24" viewBox="0 0 170 24" fill="none" xmlns="http://www.w3.org/2000/svg">
<path d="M0.764114 23.6667C0.520483 23.6667 0.332223 23.6 0.199334 23.4667C0.0664446 23.3111 0 23.1222 0 22.9V1.13333C0 0.888889 0.0664446 0.7 0.199334 0.566667C0.332223 0.411111 0.520483 0.333333 0.764114 0.333333H9.20259C10.8416 0.333333 12.259 0.599999 13.455 1.13333C14.6732 1.66667 15.6145 2.46667 16.2789 3.53333C16.9434 4.57778 17.2756 5.88889 17.2756 7.46667C17.2756 9.04445 16.9434 10.3556 16.2789 11.4C15.6145 12.4444 14.6732 13.2333 13.455 13.7667C12.259 14.3 10.8416 14.5667 9.20259 14.5667H3.32223V22.9C3.32223 23.1222 3.24471 23.3111 3.08968 23.4667C2.95679 23.6 2.76853 23.6667 2.5249 23.6667H0.764114ZM3.28901 11.7667H9.03648C10.6754 11.7667 11.9047 11.4 12.7242 10.6667C13.5436 9.93333 13.9534 8.86667 13.9534 7.46667C13.9534 6.08889 13.5547 5.02222 12.7574 4.26667C11.96 3.51111 10.7197 3.13333 9.03648 3.13333H3.28901V11.7667Z" fill="#495DD4"/>
<path d="M21.6809 23.6667C21.4595 23.6667 21.2712 23.6 21.1162 23.4667C20.9833 23.3111 20.9168 23.1222 20.9168 22.9V0.766667C20.9168 0.544445 20.9833 0.366667 21.1162 0.233334C21.2712 0.0777781 21.4595 0 21.6809 0H23.2424C23.486 0 23.6743 0.0777781 23.8072 0.233334C23.9401 0.366667 24.0065 0.544445 24.0065 0.766667V22.9C24.0065 23.1222 23.9401 23.3111 23.8072 23.4667C23.6743 23.6 23.486 23.6667 23.2424 23.6667H21.6809Z" fill="#495DD4"/>
<path d="M33.7793 24C32.6719 24 31.6642 23.7778 30.7561 23.3333C29.848 22.8889 29.1171 22.2889 28.5634 21.5333C28.0097 20.7778 27.7329 19.9222 27.7329 18.9667C27.7329 17.4333 28.353 16.2111 29.5933 15.3C30.8336 14.3889 32.4504 13.7889 34.4438 13.5L39.3939 12.8V11.8333C39.3939 10.7667 39.0838 9.93333 38.4637 9.33333C37.8657 8.73333 36.8801 8.43333 35.5069 8.43333C34.5102 8.43333 33.7018 8.63333 33.0817 9.03333C32.4837 9.43333 32.0628 9.94444 31.8192 10.5667C31.6863 10.9 31.4538 11.0667 31.1215 11.0667H29.6265C29.3829 11.0667 29.1946 11 29.0618 10.8667C28.951 10.7111 28.8956 10.5333 28.8956 10.3333C28.8956 10 29.0175 9.58889 29.2611 9.1C29.5269 8.61111 29.9255 8.13333 30.4571 7.66667C30.9887 7.2 31.6642 6.81111 32.4837 6.5C33.3253 6.16667 34.3441 6 35.5401 6C36.869 6 37.9875 6.17778 38.8956 6.53333C39.8036 6.86667 40.5124 7.32222 41.0218 7.9C41.5534 8.47778 41.9299 9.13333 42.1514 9.86667C42.395 10.6 42.5168 11.3444 42.5168 12.1V22.9C42.5168 23.1222 42.4393 23.3111 42.2842 23.4667C42.1514 23.6 41.9742 23.6667 41.7527 23.6667H40.2245C39.9808 23.6667 39.7926 23.6 39.6597 23.4667C39.5268 23.3111 39.4603 23.1222 39.4603 22.9V21.4667C39.1724 21.8667 38.7848 22.2667 38.2976 22.6667C37.8103 23.0444 37.2012 23.3667 36.4703 23.6333C35.7394 23.8778 34.8424 24 33.7793 24ZM34.477 21.5C35.3851 21.5 36.2156 21.3111 36.9687 20.9333C37.7217 20.5333 38.3086 19.9222 38.7295 19.1C39.1724 18.2778 39.3939 17.2444 39.3939 16V15.0667L35.5401 15.6333C33.9676 15.8556 32.7827 16.2333 31.9853 16.7667C31.188 17.2778 30.7893 17.9333 30.7893 18.7333C30.7893 19.3556 30.9665 19.8778 31.3209 20.3C31.6974 20.7 32.1625 21 32.7162 21.2C33.2921 21.4 33.879 21.5 34.477 21.5Z" fill="#495DD4"/>
<path d="M53.8747 23.6667C52.6344 23.6667 51.6266 23.4333 50.8515 22.9667C50.0763 22.4778 49.5115 21.8 49.1571 20.9333C48.8027 20.0444 48.6256 19 48.6256 17.8V9H46.0342C45.8127 9 45.6245 8.93333 45.4694 8.8C45.3366 8.64445 45.2701 8.45556 45.2701 8.23333V7.1C45.2701 6.87778 45.3366 6.7 45.4694 6.56667C45.6245 6.41111 45.8127 6.33333 46.0342 6.33333H48.6256V0.766667C48.6256 0.544445 48.692 0.366667 48.8249 0.233334C48.9799 0.0777781 49.1682 0 49.3897 0H50.9511C51.1726 0 51.3498 0.0777781 51.4827 0.233334C51.6377 0.366667 51.7152 0.544445 51.7152 0.766667V6.33333H55.8348C56.0563 6.33333 56.2335 6.41111 56.3664 6.56667C56.5214 6.7 56.5989 6.87778 56.5989 7.1V8.23333C56.5989 8.45556 56.5214 8.64445 56.3664 8.8C56.2335 8.93333 56.0563 9 55.8348 9H51.7152V17.5667C51.7152 18.6111 51.8924 19.4333 52.2468 20.0333C52.6012 20.6333 53.2324 20.9333 54.1405 20.9333H56.167C56.3885 20.9333 56.5657 21.0111 56.6986 21.1667C56.8536 21.3 56.9311 21.4778 56.9311 21.7V22.9C56.9311 23.1222 56.8536 23.3111 56.6986 23.4667C56.5657 23.6 56.3885 23.6667 56.167 23.6667H53.8747Z" fill="#495DD4"/>
<path d="M66.9851 24C64.7038 24 62.8876 23.3 61.5366 21.9C60.1855 20.4778 59.4436 18.5444 59.3107 16.1C59.2885 15.8111 59.2775 15.4444 59.2775 15C59.2775 14.5333 59.2885 14.1556 59.3107 13.8667C59.3993 12.2889 59.7647 10.9111 60.407 9.73333C61.0493 8.53333 61.9242 7.61111 63.0316 6.96667C64.1612 6.32222 65.479 6 66.9851 6C68.6683 6 70.0747 6.35556 71.2043 7.06667C72.356 7.77778 73.2309 8.78889 73.8289 10.1C74.4269 11.4111 74.7259 12.9444 74.7259 14.7V15.2667C74.7259 15.5111 74.6483 15.7 74.4933 15.8333C74.3604 15.9667 74.1832 16.0333 73.9617 16.0333H62.4668C62.4668 16.0556 62.4668 16.1 62.4668 16.1667C62.4668 16.2333 62.4668 16.2889 62.4668 16.3333C62.5111 17.2444 62.7104 18.1 63.0648 18.9C63.4192 19.6778 63.9286 20.3111 64.593 20.8C65.2575 21.2889 66.0548 21.5333 66.9851 21.5333C67.7824 21.5333 68.4468 21.4111 68.9784 21.1667C69.5099 20.9222 69.9418 20.6556 70.2741 20.3667C70.6063 20.0556 70.8278 19.8222 70.9385 19.6667C71.1378 19.3778 71.2929 19.2111 71.4036 19.1667C71.5144 19.1 71.6916 19.0667 71.9352 19.0667H73.5299C73.7513 19.0667 73.9285 19.1333 74.0614 19.2667C74.2165 19.3778 74.2829 19.5444 74.2607 19.7667C74.2386 20.1 74.0614 20.5111 73.7292 21C73.397 21.4667 72.9208 21.9333 72.3006 22.4C71.6805 22.8667 70.9274 23.2556 70.0415 23.5667C69.1556 23.8556 68.1368 24 66.9851 24ZM62.4668 13.7333H71.5697V13.6333C71.5697 12.6333 71.3815 11.7444 71.005 10.9667C70.6506 10.1889 70.1301 9.57778 69.4435 9.13333C68.7569 8.66667 67.9374 8.43333 66.9851 8.43333C66.0327 8.43333 65.2132 8.66667 64.5266 9.13333C63.8622 9.57778 63.3527 10.1889 62.9984 10.9667C62.644 11.7444 62.4668 12.6333 62.4668 13.6333V13.7333Z" fill="#495DD4"/>
<path d="M79.8943 23.6667C79.6728 23.6667 79.4845 23.6 79.3295 23.4667C79.1966 23.3111 79.1301 23.1222 79.1301 22.9V1.13333C79.1301 0.888889 79.1966 0.7 79.3295 0.566667C79.4845 0.411111 79.6728 0.333333 79.8943 0.333333H81.5554C81.8212 0.333333 82.0205 0.4 82.1534 0.533334C82.2863 0.666667 82.3638 0.777778 82.3859 0.866667L89.4291 14.3333L96.5054 0.866667C96.5497 0.777778 96.6273 0.666667 96.738 0.533334C96.8709 0.4 97.0702 0.333333 97.336 0.333333H98.9639C99.2075 0.333333 99.3958 0.411111 99.5287 0.566667C99.6837 0.7 99.7612 0.888889 99.7612 1.13333V22.9C99.7612 23.1222 99.6837 23.3111 99.5287 23.4667C99.3958 23.6 99.2075 23.6667 98.9639 23.6667H97.336C97.1145 23.6667 96.9263 23.6 96.7712 23.4667C96.6383 23.3111 96.5719 23.1222 96.5719 22.9V6.5L91.0238 17.3667C90.9352 17.5889 90.8023 17.7667 90.6251 17.9C90.4479 18.0111 90.2264 18.0667 89.9606 18.0667H88.9307C88.6428 18.0667 88.4103 18.0111 88.2331 17.9C88.078 17.7667 87.9452 17.5889 87.8344 17.3667L82.2863 6.5V22.9C82.2863 23.1222 82.2088 23.3111 82.0537 23.4667C81.9208 23.6 81.7436 23.6667 81.5222 23.6667H79.8943Z" fill="#495DD4"/>
<path d="M109.892 24C108.785 24 107.777 23.7778 106.869 23.3333C105.961 22.8889 105.23 22.2889 104.676 21.5333C104.123 20.7778 103.846 19.9222 103.846 18.9667C103.846 17.4333 104.466 16.2111 105.706 15.3C106.947 14.3889 108.563 13.7889 110.557 13.5L115.507 12.8V11.8333C115.507 10.7667 115.197 9.93333 114.577 9.33333C113.979 8.73333 112.993 8.43333 111.62 8.43333C110.623 8.43333 109.815 8.63333 109.195 9.03333C108.597 9.43333 108.176 9.94444 107.932 10.5667C107.799 10.9 107.567 11.0667 107.234 11.0667H105.739C105.496 11.0667 105.308 11 105.175 10.8667C105.064 10.7111 105.009 10.5333 105.009 10.3333C105.009 10 105.13 9.58889 105.374 9.1C105.64 8.61111 106.038 8.13333 106.57 7.66667C107.102 7.2 107.777 6.81111 108.597 6.5C109.438 6.16667 110.457 6 111.653 6C112.982 6 114.1 6.17778 115.008 6.53333C115.917 6.86667 116.625 7.32222 117.135 7.9C117.666 8.47778 118.043 9.13333 118.264 9.86667C118.508 10.6 118.63 11.3444 118.63 12.1V22.9C118.63 23.1222 118.552 23.3111 118.397 23.4667C118.264 23.6 118.087 23.6667 117.866 23.6667H116.337C116.094 23.6667 115.905 23.6 115.773 23.4667C115.64 23.3111 115.573 23.1222 115.573 22.9V21.4667C115.285 21.8667 114.898 22.2667 114.41 22.6667C113.923 23.0444 113.314 23.3667 112.583 23.6333C111.852 23.8778 110.955 24 109.892 24ZM110.59 21.5C111.498 21.5 112.329 21.3111 113.082 20.9333C113.835 20.5333 114.422 19.9222 114.842 19.1C115.285 18.2778 115.507 17.2444 115.507 16V15.0667L111.653 15.6333C110.08 15.8556 108.896 16.2333 108.098 16.7667C107.301 17.2778 106.902 17.9333 106.902 18.7333C106.902 19.3556 107.079 19.8778 107.434 20.3C107.81 20.7 108.275 21 108.829 21.2C109.405 21.4 109.992 21.5 110.59 21.5Z" fill="#495DD4"/>
<path d="M129.988 23.6667C128.747 23.6667 127.74 23.4333 126.964 22.9667C126.189 22.4778 125.624 21.8 125.27 20.9333C124.916 20.0444 124.738 19 124.738 17.8V9H122.147C121.926 9 121.737 8.93333 121.582 8.8C121.449 8.64445 121.383 8.45556 121.383 8.23333V7.1C121.383 6.87778 121.449 6.7 121.582 6.56667C121.737 6.41111 121.926 6.33333 122.147 6.33333H124.738V0.766667C124.738 0.544445 124.805 0.366667 124.938 0.233334C125.093 0.0777781 125.281 0 125.503 0H127.064C127.285 0 127.463 0.0777781 127.596 0.233334C127.751 0.366667 127.828 0.544445 127.828 0.766667V6.33333H131.948C132.169 6.33333 132.346 6.41111 132.479 6.56667C132.634 6.7 132.712 6.87778 132.712 7.1V8.23333C132.712 8.45556 132.634 8.64445 132.479 8.8C132.346 8.93333 132.169 9 131.948 9H127.828V17.5667C127.828 18.6111 128.005 19.4333 128.36 20.0333C128.714 20.6333 129.345 20.9333 130.253 20.9333H132.28C132.501 20.9333 132.679 21.0111 132.811 21.1667C132.967 21.3 133.044 21.4778 133.044 21.7V22.9C133.044 23.1222 132.967 23.3111 132.811 23.4667C132.679 23.6 132.501 23.6667 132.28 23.6667H129.988Z" fill="#495DD4"/>
<path d="M143.198 24C141.625 24 140.263 23.7 139.111 23.1C137.982 22.4778 137.107 21.6 136.487 20.4667C135.867 19.3111 135.534 17.9333 135.49 16.3333C135.468 16 135.457 15.5556 135.457 15C135.457 14.4444 135.468 14 135.49 13.6667C135.534 12.0667 135.867 10.7 136.487 9.56667C137.107 8.41111 137.982 7.53333 139.111 6.93333C140.263 6.31111 141.625 6 143.198 6C144.482 6 145.579 6.17778 146.487 6.53333C147.417 6.88889 148.181 7.34444 148.779 7.9C149.377 8.45556 149.82 9.05556 150.108 9.7C150.418 10.3444 150.584 10.9556 150.606 11.5333C150.628 11.7556 150.562 11.9333 150.407 12.0667C150.252 12.2 150.064 12.2667 149.842 12.2667H148.247C148.026 12.2667 147.86 12.2222 147.749 12.1333C147.638 12.0222 147.528 11.8444 147.417 11.6C147.018 10.5111 146.476 9.74444 145.789 9.3C145.102 8.85556 144.25 8.63333 143.231 8.63333C141.902 8.63333 140.817 9.04444 139.975 9.86667C139.156 10.6889 138.713 12.0111 138.646 13.8333C138.624 14.6333 138.624 15.4111 138.646 16.1667C138.713 18.0111 139.156 19.3444 139.975 20.1667C140.817 20.9667 141.902 21.3667 143.231 21.3667C144.25 21.3667 145.102 21.1444 145.789 20.7C146.476 20.2556 147.018 19.4889 147.417 18.4C147.528 18.1556 147.638 17.9889 147.749 17.9C147.86 17.7889 148.026 17.7333 148.247 17.7333H149.842C150.064 17.7333 150.252 17.8 150.407 17.9333C150.562 18.0667 150.628 18.2444 150.606 18.4667C150.584 18.9333 150.484 19.4111 150.307 19.9C150.13 20.3889 149.842 20.8889 149.443 21.4C149.067 21.8889 148.591 22.3333 148.015 22.7333C147.439 23.1111 146.741 23.4222 145.922 23.6667C145.124 23.8889 144.216 24 143.198 24Z" fill="#495DD4"/>
<path d="M155.349 23.6667C155.127 23.6667 154.939 23.6 154.784 23.4667C154.651 23.3111 154.585 23.1222 154.585 22.9V0.766667C154.585 0.544445 154.651 0.366667 154.784 0.233334C154.939 0.0777781 155.127 0 155.349 0H157.01C157.254 0 157.442 0.0777781 157.575 0.233334C157.708 0.366667 157.774 0.544445 157.774 0.766667V8.53333C158.372 7.77778 159.103 7.16667 159.967 6.7C160.831 6.23333 161.927 6 163.256 6C164.695 6 165.914 6.32222 166.91 6.96667C167.929 7.58889 168.693 8.46667 169.203 9.6C169.734 10.7111 170 12.0111 170 13.5V22.9C170 23.1222 169.934 23.3111 169.801 23.4667C169.668 23.6 169.48 23.6667 169.236 23.6667H167.575C167.353 23.6667 167.165 23.6 167.01 23.4667C166.877 23.3111 166.811 23.1222 166.811 22.9V13.6667C166.811 12.1111 166.434 10.9 165.681 10.0333C164.928 9.14444 163.821 8.7 162.359 8.7C160.986 8.7 159.878 9.14444 159.037 10.0333C158.195 10.9 157.774 12.1111 157.774 13.6667V22.9C157.774 23.1222 157.708 23.3111 157.575 23.4667C157.442 23.6 157.254 23.6667 157.01 23.6667H155.349Z" fill="#495DD4"/>
</svg>
